<svg width="20" height="18" viewBox="0 0 20 18" fill="none" xmlns="http://www.w3.org/2000/svg">
<path fill-rule="evenodd" clip-rule="evenodd" d="M0.100098 0.999976C0.100098 0.502919 0.503041 0.0999756 1.0001 0.0999756H3.0001C3.40595 0.0999756 3.7616 0.371615 3.86839 0.76317L4.51773 3.1441L19.0592 4.10192C19.5323 4.13308 19.9001 4.52588 19.9001 4.99998V11C19.9001 11.4703 19.538 11.8613 19.0691 11.8973L6.06912 12.8973C5.6387 12.9304 5.2454 12.6533 5.13181 12.2368L2.94999 4.23678L2.31268 1.89998H1.0001C0.503041 1.89998 0.100098 1.49703 0.100098 0.999976ZM7.87327 5.78172C7.75272 5.2995 7.26408 5.00632 6.78186 5.12687C6.29965 5.24743 6.00646 5.73607 6.12702 6.21828L7.12702 10.2183C7.24757 10.7005 7.73621 10.9937 8.21843 10.8731C8.70064 10.7526 8.99383 10.2639 8.87327 9.78172L7.87327 5.78172ZM11.3729 5.35902C11.8649 5.28873 12.3208 5.63064 12.3911 6.1227L12.8911 9.6227C12.9614 10.1148 12.6195 10.5706 12.1274 10.6409C11.6354 10.7112 11.1795 10.3693 11.1092 9.87725L10.6092 6.37725C10.5389 5.88519 10.8808 5.42932 11.3729 5.35902ZM16.9001 6.50002C16.9001 6.00297 16.4972 5.60002 16.0001 5.60002C15.5031 5.60002 15.1001 6.00297 15.1001 6.50002V9.50002C15.1001 9.99708 15.5031 10.4 16.0001 10.4C16.4972 10.4 16.9001 9.99708 16.9001 9.50002V6.50002ZM10.0002 16C10.0002 17.1046 9.10481 18 8.00024 18C6.89567 18 6.00024 17.1046 6.00024 16C6.00024 14.8955 6.89567 14 8.00024 14C9.10481 14 10.0002 14.8955 10.0002 16ZM16.0002 18C17.1048 18 18.0002 17.1046 18.0002 16C18.0002 14.8955 17.1048 14 16.0002 14C14.8956 14 14.0002 14.8955 14.0002 16C14.0002 17.1046 14.8956 18 16.0002 18Z" fill="#525252"/>
</svg>
