<svg width="118" height="54" viewBox="0 0 118 54" fill="none" xmlns="http://www.w3.org/2000/svg">
<rect width="118" height="54" rx="12" fill="url(#paint0_radial)"/>
<path d="M38.6191 32.4111H45.4619V35H35.3965V19.3594H38.6191V32.4111ZM46.6328 29.0811C46.6328 27.9281 46.8548 26.9004 47.2988 25.998C47.7428 25.0957 48.3802 24.3975 49.2109 23.9033C50.0488 23.4092 51.0192 23.1621 52.1221 23.1621C53.6904 23.1621 54.9688 23.6419 55.957 24.6016C56.9525 25.5612 57.5075 26.8646 57.6221 28.5117L57.6436 29.3066C57.6436 31.0898 57.1458 32.5221 56.1504 33.6035C55.1549 34.6777 53.8193 35.2148 52.1436 35.2148C50.4678 35.2148 49.1286 34.6777 48.126 33.6035C47.1305 32.5293 46.6328 31.0684 46.6328 29.2207V29.0811ZM49.7373 29.3066C49.7373 30.4095 49.945 31.2546 50.3604 31.8418C50.7757 32.4219 51.3701 32.7119 52.1436 32.7119C52.8955 32.7119 53.4827 32.4255 53.9053 31.8525C54.3278 31.2725 54.5391 30.3486 54.5391 29.0811C54.5391 27.9997 54.3278 27.1618 53.9053 26.5674C53.4827 25.973 52.8883 25.6758 52.1221 25.6758C51.363 25.6758 50.7757 25.973 50.3604 26.5674C49.945 27.1546 49.7373 28.0677 49.7373 29.3066ZM59.1045 29.1025C59.1045 27.3193 59.527 25.8835 60.3721 24.7949C61.2243 23.7064 62.3701 23.1621 63.8096 23.1621C65.0843 23.1621 66.0762 23.599 66.7852 24.4727L66.9141 23.377H69.7285V34.6133C69.7285 35.6302 69.4958 36.5146 69.0303 37.2666C68.5719 38.0186 67.9238 38.5915 67.0859 38.9854C66.248 39.3792 65.2669 39.5762 64.1426 39.5762C63.2904 39.5762 62.4596 39.4043 61.6504 39.0605C60.8411 38.724 60.2288 38.2871 59.8135 37.75L61.1885 35.8594C61.9619 36.7259 62.9001 37.1592 64.0029 37.1592C64.8265 37.1592 65.4674 36.9372 65.9258 36.4932C66.3841 36.0563 66.6133 35.4333 66.6133 34.624V34.001C65.8971 34.8102 64.9554 35.2148 63.7881 35.2148C62.3916 35.2148 61.2601 34.6706 60.3936 33.582C59.5342 32.4863 59.1045 31.0361 59.1045 29.2314V29.1025ZM62.209 29.3281C62.209 30.3809 62.4202 31.208 62.8428 31.8096C63.2653 32.404 63.8454 32.7012 64.583 32.7012C65.5283 32.7012 66.2051 32.3467 66.6133 31.6377V26.75C66.1979 26.041 65.5283 25.6865 64.6045 25.6865C63.8597 25.6865 63.2725 25.9909 62.8428 26.5996C62.4202 27.2083 62.209 28.1178 62.209 29.3281ZM71.6406 29.0811C71.6406 27.9281 71.8626 26.9004 72.3066 25.998C72.7507 25.0957 73.388 24.3975 74.2188 23.9033C75.0566 23.4092 76.027 23.1621 77.1299 23.1621C78.6982 23.1621 79.9766 23.6419 80.9648 24.6016C81.9603 25.5612 82.5153 26.8646 82.6299 28.5117L82.6514 29.3066C82.6514 31.0898 82.1536 32.5221 81.1582 33.6035C80.1628 34.6777 78.8271 35.2148 77.1514 35.2148C75.4756 35.2148 74.1364 34.6777 73.1338 33.6035C72.1383 32.5293 71.6406 31.0684 71.6406 29.2207V29.0811ZM74.7451 29.3066C74.7451 30.4095 74.9528 31.2546 75.3682 31.8418C75.7835 32.4219 76.3779 32.7119 77.1514 32.7119C77.9033 32.7119 78.4906 32.4255 78.9131 31.8525C79.3356 31.2725 79.5469 30.3486 79.5469 29.0811C79.5469 27.9997 79.3356 27.1618 78.9131 26.5674C78.4906 25.973 77.8962 25.6758 77.1299 25.6758C76.3708 25.6758 75.7835 25.973 75.3682 26.5674C74.9528 27.1546 74.7451 28.0677 74.7451 29.3066Z" fill="white"/>
<defs>
<radialGradient id="paint0_radial" cx="0" cy="0" r="1" gradientUnits="userSpaceOnUse" gradientTransform="translate(21 -22) rotate(50.3431) scale(98.7168 215.714)">
<stop stop-color="#71CCFF"/>
<stop offset="1" stop-color="#ADFFC7"/>
</radialGradient>
</defs>
</svg>
