<svg width="20" height="21" viewBox="0 0 20 21" fill="none" xmlns="http://www.w3.org/2000/svg">
<path d="M19.8567 18.4625V9.38859C19.8567 8.53465 19.8567 8.10768 19.7474 7.71394C19.6506 7.36514 19.4914 7.03674 19.2777 6.74462C19.0363 6.41486 18.7012 6.15029 18.031 5.62115L13.331 1.91063C12.2684 1.07175 11.7371 0.652312 11.1491 0.491277C10.6304 0.34921 10.083 0.34921 9.56426 0.491277C8.97626 0.652312 8.44497 1.07175 7.3824 1.91062L2.6824 5.62115C2.01215 6.15029 1.67703 6.41486 1.43571 6.74462C1.22194 7.03674 1.06279 7.36514 0.965979 7.71394C0.856689 8.10768 0.856689 8.53465 0.856689 9.38859V18.4625C0.856689 19.0226 0.856689 19.3026 0.965683 19.5165C1.06156 19.7047 1.21454 19.8576 1.4027 19.9535C1.61661 20.0625 1.89664 20.0625 2.45669 20.0625H5.25669C5.81674 20.0625 6.09677 20.0625 6.31068 19.9535C6.49884 19.8576 6.65182 19.7047 6.7477 19.5165C6.85669 19.3026 6.85669 19.0226 6.85669 18.4625V13.1625C6.85669 12.6024 6.85669 12.3224 6.96568 12.1085C7.06156 11.9203 7.21454 11.7674 7.4027 11.6715C7.61661 11.5625 7.89664 11.5625 8.45669 11.5625H12.2567C12.8167 11.5625 13.0968 11.5625 13.3107 11.6715C13.4988 11.7674 13.6518 11.9203 13.7477 12.1085C13.8567 12.3224 13.8567 12.6024 13.8567 13.1625V18.4625C13.8567 19.0226 13.8567 19.3026 13.9657 19.5165C14.0616 19.7047 14.2145 19.8576 14.4027 19.9535C14.6166 20.0625 14.8966 20.0625 15.4567 20.0625H18.2567C18.8167 20.0625 19.0968 20.0625 19.3107 19.9535C19.4988 19.8576 19.6518 19.7047 19.7477 19.5165C19.8567 19.3026 19.8567 19.0226 19.8567 18.4625Z" fill="#ADADAD"/>
</svg>
