<svg width="87" height="40" viewBox="0 0 87 40" fill="none" xmlns="http://www.w3.org/2000/svg">
<rect y="0.0932007" width="87" height="39.8136" rx="8.84746" fill="url(#paint0_radial)"/>
<path d="M28.4735 23.5065H33.5186V25.4152H26.0975V13.8836H28.4735V23.5065ZM34.3819 21.0513C34.3819 20.2012 34.5456 19.4435 34.8729 18.7782C35.2003 18.1129 35.6702 17.5981 36.2827 17.2338C36.9005 16.8694 37.6159 16.6873 38.4291 16.6873C39.5854 16.6873 40.5279 17.041 41.2565 17.7486C41.9905 18.4561 42.3997 19.4171 42.4841 20.6315L42.5 21.2176C42.5 22.5323 42.133 23.5883 41.3991 24.3856C40.6652 25.1776 39.6804 25.5736 38.4449 25.5736C37.2094 25.5736 36.222 25.1776 35.4828 24.3856C34.7489 23.5936 34.3819 22.5165 34.3819 21.1542V21.0513ZM36.6708 21.2176C36.6708 22.0307 36.8239 22.6538 37.1302 23.0867C37.4364 23.5144 37.8747 23.7282 38.4449 23.7282C38.9993 23.7282 39.4323 23.517 39.7438 23.0946C40.0553 22.667 40.2111 21.9858 40.2111 21.0513C40.2111 20.254 40.0553 19.6362 39.7438 19.198C39.4323 18.7597 38.994 18.5406 38.4291 18.5406C37.8694 18.5406 37.4364 18.7597 37.1302 19.198C36.8239 19.6309 36.6708 20.3041 36.6708 21.2176ZM43.5771 21.0671C43.5771 19.7524 43.8886 18.6937 44.5117 17.8911C45.14 17.0886 45.9848 16.6873 47.0461 16.6873C47.986 16.6873 48.7173 17.0094 49.24 17.6535L49.335 16.8457H51.4101V25.1301C51.4101 25.8799 51.2385 26.532 50.8953 27.0864C50.5574 27.6408 50.0795 28.0632 49.4617 28.3536C48.844 28.644 48.1206 28.7892 47.2916 28.7892C46.6633 28.7892 46.0508 28.6625 45.4542 28.409C44.8575 28.1609 44.4061 27.8388 44.0998 27.4428L45.1136 26.0488C45.6839 26.6877 46.3755 27.0072 47.1887 27.0072C47.7959 27.0072 48.2685 26.8435 48.6064 26.5161C48.9443 26.194 49.1133 25.7347 49.1133 25.138V24.6787C48.5853 25.2753 47.8909 25.5736 47.0303 25.5736C46.0007 25.5736 45.1664 25.1723 44.5275 24.3698C43.8939 23.5619 43.5771 22.4927 43.5771 21.1621V21.0671ZM45.866 21.2334C45.866 22.0096 46.0218 22.6194 46.3333 23.063C46.6448 23.5012 47.0725 23.7203 47.6164 23.7203C48.3133 23.7203 48.8123 23.459 49.1133 22.9362V19.3326C48.807 18.8099 48.3133 18.5485 47.6322 18.5485C47.0831 18.5485 46.6501 18.7729 46.3333 19.2217C46.0218 19.6705 45.866 20.3411 45.866 21.2334ZM52.8199 21.0513C52.8199 20.2012 52.9835 19.4435 53.3109 18.7782C53.6383 18.1129 54.1082 17.5981 54.7207 17.2338C55.3384 16.8694 56.0539 16.6873 56.867 16.6873C58.0234 16.6873 58.9658 17.041 59.6945 17.7486C60.4284 18.4561 60.8376 19.4171 60.9221 20.6315L60.938 21.2176C60.938 22.5323 60.571 23.5883 59.8371 24.3856C59.1031 25.1776 58.1184 25.5736 56.8829 25.5736C55.6473 25.5736 54.66 25.1776 53.9208 24.3856C53.1868 23.5936 52.8199 22.5165 52.8199 21.1542V21.0513ZM55.1088 21.2176C55.1088 22.0307 55.2619 22.6538 55.5681 23.0867C55.8744 23.5144 56.3126 23.7282 56.8829 23.7282C57.4373 23.7282 57.8702 23.517 58.1818 23.0946C58.4933 22.667 58.649 21.9858 58.649 21.0513C58.649 20.254 58.4933 19.6362 58.1818 19.198C57.8702 18.7597 57.432 18.5406 56.867 18.5406C56.3073 18.5406 55.8744 18.7597 55.5681 19.198C55.2619 19.6309 55.1088 20.3041 55.1088 21.2176Z" fill="white"/>
<defs>
<radialGradient id="paint0_radial" cx="0" cy="0" r="1" gradientUnits="userSpaceOnUse" gradientTransform="translate(15.483 -16.1271) rotate(50.3431) scale(72.7827 159.044)">
<stop stop-color="#71CCFF"/>
<stop offset="1" stop-color="#ADFFC7"/>
</radialGradient>
</defs>
</svg>
